<svg width="131" height="32" viewBox="0 0 131 32" fill="none" xmlns="http://www.w3.org/2000/svg">
<g clip-path="url(#clip0_912_2140)">
<path d="M49.2446 26.9845C51.6159 26.9845 53.781 26.2972 55.2244 24.8538C55.5337 24.5789 55.5681 24.3383 55.3962 24.0977L54.1247 22.345C53.9528 22.1045 53.781 22.0701 53.5404 22.2076C52.1658 22.998 50.9286 23.2386 49.6226 23.2386C46.9077 23.2386 45.155 22.0701 44.6395 19.9394H54.8807C56.3585 19.9394 56.7365 19.0115 56.7365 17.3619C56.7365 13.1004 53.781 9.32009 48.6604 9.32009C43.471 9.32009 40 13.1348 40 18.0836C40 23.1698 43.7116 26.9845 49.2446 26.9845ZM44.5708 16.6058C44.9832 14.372 46.5984 13.2379 48.6947 13.2379C50.7224 13.2379 52.2345 14.372 52.5094 16.6058H44.5708Z" fill="#171717"/>
<path d="M66.7265 26.9845C69.2352 26.9845 71.0567 25.9192 72.2251 24.2008L72.2939 26.0566C72.2939 26.3659 72.5001 26.5721 72.8094 26.5721H76.1429C76.4522 26.5721 76.6928 26.3659 76.6928 26.0566V2.5155C76.6928 2.2062 76.4866 2 76.1773 2H72.4313C72.122 2 71.9158 2.2062 71.9158 2.5155V11.6914C70.7817 10.1793 69.0634 9.32009 66.7265 9.32009C61.9839 9.32009 58.7191 13.1691 58.7191 18.1523C58.7191 23.1698 61.9839 26.9845 66.7265 26.9845ZM63.3586 18.1523C63.3586 15.4717 65.2143 13.6503 67.7231 13.6503C70.2319 13.6503 71.9846 15.4373 71.9846 18.1523C71.9846 20.8673 70.2319 22.6543 67.7231 22.6543C65.2143 22.6543 63.3586 20.8673 63.3586 18.1523Z" fill="#171717"/>
<path d="M88.8306 26.9845C91.2019 26.9845 93.367 26.2972 94.8104 24.8538C95.1197 24.5789 95.1541 24.3383 94.9823 24.0977L93.7107 22.345C93.5389 22.1045 93.367 22.0701 93.1265 22.2076C91.7518 22.998 90.5146 23.2386 89.2087 23.2386C86.4937 23.2386 84.741 22.0701 84.2255 19.9394H94.4668C95.9445 19.9394 96.3226 19.0115 96.3226 17.3619C96.3226 13.1004 93.367 9.32009 88.2464 9.32009C83.0571 9.32009 79.586 13.1348 79.586 18.0836C79.586 23.1698 83.2976 26.9845 88.8306 26.9845ZM84.1568 16.6058C84.5692 14.372 86.1844 13.2379 88.2808 13.2379C90.3084 13.2379 91.8205 14.372 92.0955 16.6058H84.1568Z" fill="#171717"/>
<path d="M99.6798 26.5721H103.391C103.701 26.5721 103.907 26.3659 103.907 26.0566V17.3275C103.907 14.9562 105.213 13.6846 107.206 13.6846C109.234 13.6846 110.333 14.9562 110.333 17.3275V26.0566C110.333 26.3659 110.54 26.5721 110.849 26.5721H114.526C114.835 26.5721 115.076 26.3659 115.076 26.0566V16.2621C115.076 11.8632 112.498 9.32009 108.993 9.32009C106.484 9.32009 104.869 10.5573 103.907 12.2756L103.769 10.2824C103.769 9.86995 103.563 9.73249 103.254 9.73249H99.6798C99.3705 9.73249 99.1643 9.93869 99.1643 10.248V26.0566C99.1643 26.3659 99.3705 26.5721 99.6798 26.5721Z" fill="#171717"/>
<path d="M124.529 26.9845C127.897 26.9845 130.818 25.2318 130.852 21.8295C130.887 19.252 129.203 17.7743 127.072 16.9151L124.701 15.9872C123.773 15.6435 123.085 15.1968 123.085 14.372C123.085 13.6503 123.601 13.0317 124.701 13.0317C125.697 13.0317 126.659 13.5128 127.759 14.4407C128.068 14.6813 128.309 14.7156 128.55 14.4407L130.062 12.6193C130.234 12.4131 130.302 12.1381 130.096 11.8976C128.687 10.2136 126.659 9.32009 124.46 9.32009C121.333 9.32009 118.583 11.1759 118.583 14.4063C118.583 16.7433 120.095 18.1867 122.26 19.0458L124.391 19.905C125.628 20.4205 126.144 20.7985 126.144 21.6233C126.144 22.5856 125.388 23.0324 124.254 23.0324C122.948 23.0324 121.779 22.4481 120.37 21.3828C120.095 21.1766 119.786 21.1078 119.511 21.5202L118.308 23.2042C118.068 23.5822 118.033 23.9603 118.24 24.2008C119.58 25.7817 121.711 26.9845 124.529 26.9845Z" fill="#171717"/>
<path d="M0 0.888919C0 0.397983 0.396204 0 0.884945 0H20.3649L20.4641 0.000398825C23.8969 0.0280418 26.6734 1.49169 28.9566 4.08903C29.2499 4.40015 29.2499 4.75572 28.9985 5.11128L26.6096 8.17805C26.3581 8.53362 26.0228 8.62252 25.6875 8.35584C23.8854 6.66689 22.4185 5.82242 20.5744 5.82242C18.437 5.82242 17.0958 6.93357 17.0958 8.8003C17.0958 10.6226 18.2694 11.3337 20.5325 12.4449L23.1913 13.4328C22.4557 13.1953 21.7579 13.0761 21.1582 13.0761L12.3517 13.0761C11.7015 11.905 11.3122 10.4899 11.3122 8.75585C11.3122 7.84453 11.4182 6.99925 11.6169 6.22243H0.884944C0.396202 6.22243 0 5.82445 0 5.33352V0.888919Z" fill="#171717"/>
<path d="M12.356 13.0757L0.888851 13.0757C0.40011 13.0757 0.00390625 13.4737 0.00390625 13.9646L0.00390625 18.4092C0.00390625 18.9001 0.40011 19.2981 0.888852 19.2981L21.1621 19.2981C23.0018 19.2981 24.4073 20.8941 24.3856 22.5361C24.3613 24.3713 22.8802 25.7775 21.1621 25.7775L0.888851 25.7775C0.40011 25.7775 0.00390625 26.1755 0.00390625 26.6664L0.00390625 31.111C0.00390625 31.602 0.40011 31.9999 0.888852 31.9999L21.1621 31.9999L21.1667 31.9999C26.1518 31.998 29.9996 28.801 29.9996 22.5361C29.9996 16.2692 24.2666 13.0757 21.1621 13.0757L12.356 13.0757Z" fill="#6366F1"/>
</g>
<defs>
<clipPath id="clip0_912_2140">
<rect width="131" height="32" fill="white"/>
</clipPath>
</defs>
</svg>
